<svg xmlns="http://www.w3.org/2000/svg" viewBox="0 0 1200 300" width="100%">
  <defs>
    <!-- Background Gradient -->
    <linearGradient id="bg" x1="0%" y1="0%" x2="100%" y2="100%">
      <stop offset="0%" stop-color="#090a0f" />
      <stop offset="50%" stop-color="#121521" />
      <stop offset="100%" stop-color="#040508" />
    </linearGradient>

    <!-- Glowing Text Gradient -->
    <linearGradient id="textGlow" x1="0%" y1="0%" x2="100%" y2="0%">
      <stop offset="0%" stop-color="#4F46E5" />
      <stop offset="50%" stop-color="#0ea5e9" />
      <stop offset="100%" stop-color="#8b5cf6" />
    </linearGradient>

    <!-- Node Gradient -->
    <linearGradient id="nodeGrad" x1="0%" y1="0%" x2="100%" y2="100%">
      <stop offset="0%" stop-color="#38bdf8" />
      <stop offset="100%" stop-color="#818cf8" />
    </linearGradient>

    <!-- Grid Pattern -->
    <pattern id="grid" width="40" height="40" patternUnits="userSpaceOnUse">
      <path d="M 40 0 L 0 0 0 40" fill="none" stroke="rgba(255, 255, 255, 0.03)" stroke-width="1"/>
    </pattern>

    <filter id="glow" x="-20%" y="-20%" width="140%" height="140%">
      <feGaussianBlur stdDeviation="6" result="blur" />
      <feMerge>
        <feMergeNode in="blur" />
        <feMergeNode in="SourceGraphic" />
      </feMerge>
    </filter>
  </defs>

  <!-- Deep Dark Solid Background -->
  <rect width="100%" height="100%" fill="url(#bg)" />
  
  <!-- Overlay Subtle Grid -->
  <rect width="100%" height="100%" fill="url(#grid)" />

  <!-- Connecting Lines representing Context Injection (Left) -->
  <g opacity="0.6" stroke-width="2" fill="none" filter="url(#glow)">
    <!-- Primary flow -->
    <path d="M0 150 C 200 150, 300 100, 450 150" stroke="#0ea5e9" opacity="0.8"/>
    <path d="M0 80 C 150 80, 250 150, 400 130" stroke="#4F46E5" opacity="0.5"/>
    <path d="M0 220 C 180 220, 280 150, 420 170" stroke="#8b5cf6" opacity="0.5"/>
    
    <!-- Minor branches -->
    <path d="M100 80 L 150 110" stroke="#0ea5e9"/>
    <path d="M200 220 L 250 185" stroke="#8b5cf6"/>
    <path d="M300 100 L 320 130" stroke="#4F46E5"/>
  </g>

  <!-- Connecting Lines representing Context Injection (Right) -->
  <g opacity="0.6" stroke-width="2" fill="none" filter="url(#glow)">
    <!-- Primary flow -->
    <path d="M1200 150 C 1000 150, 900 200, 750 150" stroke="#0ea5e9" opacity="0.8"/>
    <path d="M1200 80 C 1050 80, 950 150, 800 130" stroke="#8b5cf6" opacity="0.5"/>
    <path d="M1200 220 C 1020 220, 920 150, 780 170" stroke="#4F46E5" opacity="0.5"/>
    
    <!-- Minor branches -->
    <path d="M1100 80 L 1050 110" stroke="#0ea5e9"/>
    <path d="M1000 220 L 950 185" stroke="#4F46E5"/>
    <path d="M900 200 L 880 170" stroke="#8b5cf6"/>
  </g>

  <!-- Data Nodes (Left) -->
  <g fill="url(#nodeGrad)" filter="url(#glow)">
    <circle cx="100" cy="80" r="5" />
    <circle cx="150" cy="110" r="4" />
    <circle cx="200" cy="220" r="6" />
    <circle cx="250" cy="185" r="4" />
    <circle cx="300" cy="100" r="7" />
    <circle cx="320" cy="130" r="3" />
    <circle cx="450" cy="150" r="8" fill="#ffffff"/>
  </g>

  <!-- Data Nodes (Right) -->
  <g fill="url(#nodeGrad)" filter="url(#glow)">
    <circle cx="1100" cy="80" r="5" />
    <circle cx="1050" cy="110" r="4" />
    <circle cx="1000" cy="220" r="6" />
    <circle cx="950" cy="185" r="4" />
    <circle cx="900" cy="200" r="7" />
    <circle cx="880" cy="170" r="3" />
    <circle cx="750" cy="150" r="8" fill="#ffffff"/>
  </g>

  <!-- Typography -->
  <text x="50%" y="48%" text-anchor="middle" font-family="-apple-system, system-ui, BlinkMacSystemFont, Segoe UI, Roboto, sans-serif" font-size="94" font-weight="900" fill="url(#textGlow)" filter="url(#glow)" letter-spacing="2">
    GROUNDTRUTH
  </text>
  
  <text x="50%" y="48%" text-anchor="middle" font-family="-apple-system, system-ui, BlinkMacSystemFont, Segoe UI, Roboto, sans-serif" font-size="94" font-weight="900" fill="#ffffff" letter-spacing="2">
    GROUNDTRUTH
  </text>

  <text x="50%" y="68%" text-anchor="middle" font-family="-apple-system, system-ui, BlinkMacSystemFont, Segoe UI, Roboto, sans-serif" font-size="28" font-weight="500" fill="#94a3b8" letter-spacing="4">
    ZERO-CONFIGURATION CONTEXT INJECTION
  </text>
  
  <rect x="350" y="72%" width="500" height="2" fill="rgba(255,255,255,0.1)" />
  <rect x="450" y="72%" width="300" height="2" fill="#0ea5e9" filter="url(#glow)" />
</svg>
